<svg xmlns="http://www.w3.org/2000/svg" version="1.1" xmlns:xlink="http://www.w3.org/1999/xlink" xmlns:svgjs="http://svgjs.com/svgjs" width="1440" height="250" preserveAspectRatio="none" viewBox="0 0 1440 250"><g mask="url(&quot;#SvgjsMask1000&quot;)" fill="none"><rect width="1440" height="250" x="0" y="0" fill="#0e2a47"></rect><path d="M29 250L279 0L532.5 0L282.5 250z" fill="url(#SvgjsLinearGradient1001)"></path><path d="M280.6 250L530.6 0L779.6 0L529.6 250z" fill="url(#SvgjsLinearGradient1001)"></path><path d="M491.20000000000005 250L741.2 0L1090.7 0L840.7 250z" fill="url(#SvgjsLinearGradient1001)"></path><path d="M724.8000000000001 250L974.8000000000001 0L1076.8000000000002 0L826.8000000000001 250z" fill="url(#SvgjsLinearGradient1001)"></path><path d="M1431 250L1181 0L957.5 0L1207.5 250z" fill="url(#SvgjsLinearGradient1002)"></path><path d="M1187.4 250L937.4000000000001 0L704.9000000000001 0L954.9000000000001 250z" fill="url(#SvgjsLinearGradient1002)"></path><path d="M917.8 250L667.8 0L415.79999999999995 0L665.8 250z" fill="url(#SvgjsLinearGradient1002)"></path><path d="M710.1999999999999 250L460.19999999999993 0L256.19999999999993 0L506.19999999999993 250z" fill="url(#SvgjsLinearGradient1002)"></path><path d="M1290.636048602207 250L1440 100.63604860220704L1440 250z" fill="url(#SvgjsLinearGradient1001)"></path><path d="M0 250L149.36395139779296 250L 0 100.63604860220704z" fill="url(#SvgjsLinearGradient1002)"></path></g><defs><mask id="SvgjsMask1000"><rect width="1440" height="250" fill="#ffffff"></rect></mask><linearGradient x1="0%" y1="100%" x2="100%" y2="0%" id="SvgjsLinearGradient1001"><stop stop-color="rgba(15, 70, 185, 0.2)" offset="0"></stop><stop stop-opacity="0" stop-color="rgba(15, 70, 185, 0.2)" offset="0.66"></stop></linearGradient><linearGradient x1="100%" y1="100%" x2="0%" y2="0%" id="SvgjsLinearGradient1002"><stop stop-color="rgba(15, 70, 185, 0.2)" offset="0"></stop><stop stop-opacity="0" stop-color="rgba(15, 70, 185, 0.2)" offset="0.66"></stop></linearGradient></defs></svg>